<?xml version="1.0" standalone="no"?>
<!DOCTYPE svg PUBLIC "-//W3C//DTD SVG 20010904//EN"
 "http://www.w3.org/TR/2001/REC-SVG-20010904/DTD/svg10.dtd">
<svg version="1.0" xmlns="http://www.w3.org/2000/svg"
 width="798.000000pt" height="798.000000pt" viewBox="0 0 798.000000 798.000000"
 preserveAspectRatio="xMidYMid meet">
<metadata>
Created by potrace 1.16, written by Peter Selinger 2001-2019
</metadata>
<g transform="translate(0.000000,798.000000) scale(0.100000,-0.100000)"
fill="#000000" stroke="none">
<path d="M0 3990 l0 -3990 3990 0 3990 0 0 3990 0 3990 -3990 0 -3990 0 0
-3990z m4779 2803 c-52 -54 -137 -143 -190 -198 -223 -231 -506 -565 -651
-768 -72 -100 -188 -280 -188 -292 0 -2 -13 -26 -29 -52 -43 -70 -119 -269
-139 -363 -35 -158 -37 -178 -31 -280 6 -100 28 -200 63 -282 9 -21 16 -43 16
-50 0 -17 -29 24 -30 41 0 8 -9 33 -19 55 -11 23 -30 91 -42 151 -26 132 -28
140 -36 132 -5 -6 -24 -84 -40 -172 -3 -16 -10 -35 -15 -42 -6 -7 -7 -30 -3
-52 4 -24 2 -41 -4 -46 -6 -3 -11 -18 -11 -32 0 -14 -8 -63 -17 -108 -15 -73
-15 -87 -3 -110 11 -20 19 -25 37 -20 21 5 23 2 23 -28 0 -18 7 -43 16 -56
l17 -24 17 23 17 23 18 -26 c9 -15 23 -27 30 -27 8 0 17 -9 20 -20 8 -26 23
-25 35 3 7 17 9 18 9 5 1 -24 17 -23 24 2 4 14 10 18 22 14 12 -5 15 -14 10
-33 l-7 -26 28 30 27 30 -6 -35 c-5 -25 -4 -31 3 -20 9 13 13 12 30 -9 11 -13
23 -21 26 -18 4 3 -1 13 -10 22 -15 16 -56 96 -56 111 0 3 -14 35 -31 70 -17
34 -29 69 -26 76 4 8 6 7 6 -4 1 -10 6 -18 11 -18 6 0 10 -11 10 -24 0 -13 3
-26 8 -28 4 -1 27 -43 52 -93 25 -49 48 -93 52 -96 5 -3 8 -90 9 -195 0 -104
3 -193 6 -197 6 -11 31 23 169 228 146 218 157 235 167 235 14 0 7 -22 -23
-65 -36 -52 -37 -59 -9 -79 15 -10 19 -20 14 -33 -12 -29 -14 -62 -4 -69 5 -3
7 -9 4 -14 -4 -6 -14 -4 -25 2 -25 16 -41 0 -17 -16 21 -16 22 -25 1 -40 -14
-11 -14 -16 1 -60 11 -33 14 -61 10 -85 -13 -63 -15 -111 -5 -111 6 0 10 7 10
15 0 8 5 15 10 15 6 0 10 7 10 15 0 8 14 37 30 63 17 27 30 54 30 60 0 6 3 12
8 14 4 2 18 23 31 48 12 25 49 95 81 155 140 267 220 428 220 445 0 32 -22 35
-47 6 l-23 -27 -26 20 c-29 23 -53 18 -32 -6 10 -12 8 -18 -12 -34 -14 -10
-31 -19 -38 -19 -7 0 -17 -11 -22 -25 -5 -14 -17 -25 -25 -25 -9 0 -24 -7 -33
-16 -11 -12 -17 -13 -20 -5 -6 17 45 91 62 91 10 0 14 14 14 50 l1 51 -67 43
c-107 68 -265 161 -285 166 -10 3 -19 10 -20 15 -1 7 187 11 546 13 321 1 547
-2 547 -7 0 -5 -23 -24 -52 -42 -73 -47 -140 -106 -187 -166 -23 -28 -41 -54
-41 -57 0 -3 -98 -152 -217 -332 -369 -553 -435 -644 -463 -644 -7 0 -10 -6
-7 -13 3 -8 -4 -20 -15 -28 -10 -8 -27 -30 -36 -49 -9 -19 -20 -39 -24 -45
-16 -19 -130 -201 -155 -247 -24 -45 -46 -63 -62 -53 -5 2 -8 57 -7 122 1 65
0 108 -2 96 -2 -13 -7 -23 -11 -23 -6 0 -44 77 -96 194 -21 47 -24 15 -5 -54
10 -36 28 -97 39 -137 11 -40 25 -81 30 -92 6 -11 11 -25 11 -33 0 -33 -429
623 -669 1022 -216 360 -245 422 -271 580 -27 162 15 403 100 571 89 174 164
278 320 434 127 128 201 185 571 438 130 89 294 202 365 250 360 247 661 446
673 447 8 0 -28 -44 -80 -97z m-1991 -1468 c0 -14 -4 -28 -9 -31 -5 -3 -9 -18
-9 -35 0 -16 -4 -29 -10 -29 -5 0 -10 -11 -10 -24 0 -13 -7 -26 -15 -30 -8 -3
-15 -16 -15 -28 0 -22 -57 -78 -79 -78 -8 0 -21 13 -76 82 -21 25 -35 55 -35
72 0 16 101 72 190 107 61 23 68 23 68 -6z m2436 -70 c10 -7 15 -18 11 -24
-11 -18 -29 -12 -42 14 -13 29 0 33 31 10z m-804 -28 c0 -15 -114 -275 -125
-286 -13 -13 -19 -13 -36 -3 -11 7 -24 10 -28 7 -5 -3 -11 2 -15 10 -7 20 -26
19 -26 -1 0 -11 -6 -14 -20 -9 -11 3 -20 2 -20 -3 0 -12 -88 -37 -97 -28 -11
11 -14 84 -4 90 5 4 7 21 4 40 -7 46 8 55 302 169 37 15 65 21 65 14z m185
-121 c55 -35 100 -69 100 -76 0 -28 -32 -35 -97 -21 -35 7 -67 16 -72 21 -18
17 -55 140 -43 140 7 0 57 -29 112 -64z m503 -73 c-2 -10 -10 -18 -18 -18 -8
0 -16 8 -18 18 -2 12 3 17 18 17 15 0 20 -5 18 -17z m-178 -64 c160 -22 243
-46 295 -83 40 -28 141 -26 192 4 19 11 43 18 52 15 9 -2 29 2 45 10 31 16 70
20 62 6 -3 -4 -27 -14 -53 -21 -97 -26 -202 -63 -265 -95 l-36 -18 -54 34
c-29 19 -74 45 -100 57 -27 12 -67 31 -90 42 -52 23 -152 42 -184 34 -17 -4
-24 -2 -24 8 0 29 6 29 160 7z m-2233 -219 c3 0 79 -142 150 -280 104 -201
182 -349 213 -405 15 -27 58 -108 95 -180 37 -71 89 -170 115 -220 26 -49 81
-155 122 -235 42 -80 101 -194 133 -255 32 -60 97 -186 144 -280 47 -93 89
-171 94 -173 4 -2 7 -9 7 -15 0 -7 13 -36 29 -66 22 -43 27 -63 23 -94 -4 -29
-2 -38 6 -33 7 4 12 14 12 22 0 8 6 14 13 14 11 0 108 167 237 405 57 104 114
210 240 444 78 146 152 281 164 300 13 20 44 77 71 126 27 50 101 185 165 300
64 116 147 266 184 335 l68 126 162 82 162 82 312 3 c172 2 312 0 312 -4 0 -5
-10 -14 -22 -20 -25 -12 -199 -114 -363 -212 -170 -101 -198 -130 -287 -297
-25 -47 -98 -183 -162 -303 -108 -203 -128 -247 -108 -247 4 0 13 -10 21 -21
14 -23 16 -23 -33 -3 -7 3 -16 -3 -19 -13 -8 -23 -57 -106 -67 -113 -10 -7
-225 -401 -450 -825 -83 -156 -210 -395 -240 -450 -37 -68 -333 -622 -354
-663 -14 -28 -20 -31 -32 -21 -24 19 -122 202 -195 360 -37 81 -131 274 -209
430 -224 446 -481 953 -490 964 -4 6 -26 44 -48 85 -89 167 -196 368 -222 415
-15 28 -51 95 -80 150 -29 55 -56 105 -60 110 -4 6 -33 60 -65 120 -122 231
-145 257 -307 358 -257 161 -307 195 -300 201 5 6 834 2 859 -4z m730 -392
c-3 -8 -6 -5 -6 6 -1 11 2 17 5 13 3 -3 4 -12 1 -19z m-1407 -104 c19 -10 50
-23 69 -29 39 -11 46 -29 15 -33 -12 -2 -30 -12 -40 -23 -9 -10 -23 -19 -31
-19 -16 0 -17 -21 -3 -52 10 -20 17 -23 61 -19 46 3 50 1 47 -16 -2 -11 3 -27
10 -36 23 -28 4 -36 -35 -16 -21 10 -43 19 -50 19 -23 0 -63 32 -63 50 0 10
-6 23 -14 29 -16 13 -86 182 -86 207 0 11 10 8 43 -14 23 -16 58 -38 77 -48z
m1495 -4 c3 -5 1 -10 -4 -10 -6 0 -11 5 -11 10 0 6 2 10 4 10 3 0 8 -4 11 -10z
m-1448 -152 c-3 -7 -5 -2 -5 12 0 14 2 19 5 13 2 -7 2 -19 0 -25z m3563 -150
c0 -13 -3 -33 -6 -46 -9 -32 -43 -25 -65 13 -22 37 -23 46 -6 39 7 -2 24 0 38
5 35 14 39 13 39 -11z m-142 -84 c27 -19 28 -40 2 -47 -17 -4 -18 -9 -9 -39
13 -39 35 -86 51 -110 10 -13 9 -21 -4 -35 -9 -10 -27 -40 -39 -68 -18 -42
-23 -75 -28 -207 -3 -86 -9 -159 -13 -163 -4 -4 -17 1 -30 11 -21 16 -23 25
-24 113 -1 53 -5 174 -9 269 -7 169 -7 174 14 193 11 11 21 27 21 35 0 15 30
63 40 64 3 0 16 -7 28 -16z m-3121 -348 c-3 -8 1 -17 9 -20 9 -3 12 -11 9 -17
-4 -6 10 -26 30 -45 36 -32 37 -35 30 -84 -6 -43 -5 -49 9 -44 9 3 16 10 16
15 0 5 4 9 9 9 4 0 9 -27 10 -60 1 -33 -1 -60 -5 -60 -19 0 -256 269 -248 282
18 29 142 52 131 24z m2848 -53 c25 -37 45 -75 45 -83 0 -16 -88 -125 -218
-268 -51 -56 -80 -81 -90 -77 -9 3 -19 0 -24 -7 -5 -8 -6 -2 -2 15 4 16 1 33
-6 42 -28 33 -49 87 -40 104 5 9 14 44 21 79 6 34 16 65 20 68 5 3 3 14 -4 25
-10 16 -9 21 2 29 12 7 12 11 2 23 -10 13 -6 20 26 41 21 14 43 26 50 26 7 0
13 7 13 16 0 12 7 14 30 9 17 -4 36 -2 43 3 13 10 41 19 69 21 11 1 34 -24 63
-66z m-3 -1253 c-2 -14 -10 -31 -17 -39 -12 -12 -20 -9 -58 20 -25 19 -43 38
-40 42 3 4 30 7 61 5 54 -3 57 -4 54 -28z"/>
<path d="M3918 5993 c-36 -38 -83 -88 -104 -113 -21 -25 -41 -47 -44 -50 -3
-3 -25 -30 -50 -60 -25 -30 -53 -64 -63 -75 -10 -11 -50 -64 -88 -117 -208
-291 -298 -557 -286 -852 2 -72 9 -142 15 -156 10 -24 11 -24 32 23 12 27 24
47 26 44 4 -4 -10 -100 -22 -149 -4 -18 -2 -28 5 -28 6 0 11 14 11 30 0 17 5
30 10 30 6 0 10 11 10 25 0 14 4 33 9 43 5 9 15 37 22 62 7 25 16 49 21 55 4
5 8 18 8 30 0 12 4 25 8 30 5 6 15 30 22 55 7 25 19 54 25 65 7 11 25 74 40
140 15 65 46 166 67 225 22 58 42 114 45 125 19 75 248 477 330 581 26 33 33
55 23 73 -7 14 -6 21 3 24 8 4 8 6 1 6 -7 1 -41 -29 -76 -66z m-3 -52 c3 -5 1
-12 -5 -16 -5 -3 -10 1 -10 9 0 18 6 21 15 7z"/>
<path d="M3065 4758 c-55 -27 -107 -54 -115 -59 -8 -5 -23 -12 -32 -15 -28
-10 -22 -66 13 -142 61 -132 74 -157 91 -176 10 -11 18 -23 18 -27 0 -5 14
-28 30 -52 17 -25 30 -48 30 -52 0 -4 8 -19 19 -33 22 -32 65 -104 88 -149 19
-37 33 -43 33 -13 0 11 -4 20 -8 20 -11 0 -39 65 -46 107 -4 25 -1 34 20 47
23 16 25 16 34 -9 9 -23 13 -24 54 -19 37 5 47 3 52 -10 8 -20 24 -21 24 -1 0
8 -3 15 -7 15 -5 0 -16 19 -27 43 -10 23 -26 60 -36 82 -56 122 -110 348 -110
457 0 24 -5 38 -12 37 -7 0 -58 -23 -113 -51z m102 -540 c-3 -8 -6 -5 -6 6 -1
11 2 17 5 13 3 -3 4 -12 1 -19z"/>
<path d="M4495 4500 c3 -5 10 -10 16 -10 5 0 9 5 9 10 0 6 -7 10 -16 10 -8 0
-12 -4 -9 -10z"/>
<path d="M4460 4479 c0 -5 5 -7 10 -4 6 3 10 8 10 11 0 2 -4 4 -10 4 -5 0 -10
-5 -10 -11z"/>
<path d="M3290 4161 c0 -11 4 -22 9 -25 11 -7 20 14 13 32 -7 19 -22 14 -22
-7z"/>
<path d="M3375 4140 c3 -5 8 -10 11 -10 2 0 4 5 4 10 0 6 -5 10 -11 10 -5 0
-7 -4 -4 -10z"/>
<path d="M3216 4132 c-3 -5 4 -18 16 -28 21 -19 21 -19 8 6 -17 33 -17 33 -24
22z"/>
<path d="M4095 4051 c-3 -10 -14 -29 -25 -41 -10 -12 -17 -27 -14 -35 3 -7 -2
-15 -10 -18 -9 -4 -16 -13 -16 -22 0 -8 -6 -15 -12 -15 -12 0 -78 -91 -78
-106 0 -4 -24 -38 -52 -78 l-53 -71 5 -200 5 -200 13 95 c19 142 49 286 66
322 9 17 16 37 16 44 0 8 9 28 20 46 11 18 20 43 20 56 0 12 5 22 10 22 6 0
10 7 10 15 0 8 9 24 20 35 11 11 27 20 35 20 8 0 15 4 15 9 0 18 45 80 58 81
16 0 15 20 -2 43 -17 22 -23 22 -31 -2z m9 -45 c-3 -9 -10 -13 -16 -10 -5 3
-4 12 3 20 15 18 22 13 13 -10z"/>
<path d="M3248 4008 c-5 -14 59 -118 73 -118 13 0 11 11 -5 29 -7 9 -24 36
-38 59 -15 26 -28 38 -30 30z"/>
<path d="M4076 3911 c-4 -5 -2 -12 3 -15 5 -4 12 -2 15 3 4 5 2 12 -3 15 -5 4
-12 2 -15 -3z"/>
<path d="M4080 3839 c0 -5 5 -7 10 -4 6 3 10 8 10 11 0 2 -4 4 -10 4 -5 0 -10
-5 -10 -11z"/>
<path d="M4085 3610 c3 -5 8 -10 11 -10 2 0 4 5 4 10 0 6 -5 10 -11 10 -5 0
-7 -4 -4 -10z"/>
<path d="M3761 3374 c0 -11 3 -14 6 -6 3 7 2 16 -1 19 -3 4 -6 -2 -5 -13z"/>
<path d="M3780 3336 c0 -9 5 -16 10 -16 6 0 10 4 10 9 0 6 -4 13 -10 16 -5 3
-10 -1 -10 -9z"/>
<path d="M3127 3633 c-13 -12 -7 -42 11 -52 16 -9 16 -11 0 -39 -16 -26 -16
-34 -5 -62 12 -26 16 -29 26 -16 8 10 9 16 1 21 -11 7 -14 45 -2 45 11 0 32
-51 32 -77 0 -13 4 -23 8 -23 5 0 13 -12 19 -27 l11 -28 1 27 c1 15 -3 30 -9
33 -5 3 -10 17 -10 31 0 13 -4 24 -10 24 -5 0 -10 11 -10 24 0 14 -4 28 -10
31 -5 3 -10 13 -10 20 0 21 -35 76 -43 68z"/>
<path d="M3232 3360 c0 -8 4 -26 8 -40 6 -20 8 -21 8 -5 0 11 -3 29 -8 40 -5
12 -8 14 -8 5z"/>
<path d="M2455 3291 c-3 -5 -1 -12 5 -16 5 -3 10 1 10 9 0 18 -6 21 -15 7z"/>
</g>
</svg>
